<svg xmlns="http://www.w3.org/2000/svg" viewBox="0 0 60.03555 60.10086"><defs><style>.a{fill:#fff;}</style></defs><path class="a" d="M51.84256,44.07406a13.46148,13.46148,0,0,0-.024-5.10854L56.40619,27.894a.17243.17243,0,0,0,0-.022,18.81148,18.81148,0,0,1,3.22038-5.59135,1.4935,1.4935,0,0,0,.36962-1.36729L58.115,12.78975a.98078.98078,0,0,0-.10016-.24241c-.008-.015-.011-.033-.019-.04707s-.04307-.04809-.0631-.07413a1.01034,1.01034,0,0,0-.14124-.16528.93346.93346,0,0,0-.10918-.06611,1.01839,1.01839,0,0,0-.15526-.09415.98958.98958,0,0,0-.23439-.0571c-.023,0-.04307-.015-.06611-.017a1.00172,1.00172,0,0,0-.55193.12321c-.015.008-.03305.011-.04808.02h-.01l-7.07283,4.41438a1.49448,1.49448,0,0,0-.70718,1.23206,18.80151,18.80151,0,0,1-1.68382,6.24344v.011l-2.29283,5.54227a13.43647,13.43647,0,0,0-3.578-1.29216,54.12337,54.12337,0,0,0,.51887-9.84947,10.9323,10.9323,0,0,0,2.48616-8.02542C43.66087,4.60807,38.38505.392,38.15967.21472A1.00167,1.00167,0,0,0,36.572,1.25947c.51586,1.93724.06911,3.98166-3.74126,8.18569a5.86179,5.86179,0,0,0-1.37329,6.38768,7.7759,7.7759,0,0,0,1.42638,2.30385c-.24241,1.54759-.43272,3.013-.56394,4.44043a50.165,50.165,0,0,0-.17429,7.10388,13.62808,13.62808,0,0,0-2.49417,1.7379L24.79332,10.64416c0-.021-.02-.03606-.026-.05509a.9499.9499,0,0,0-.07012-.19332l-4.9623-9.16433a2.31287,2.31287,0,0,0-4.34526,1.0177L15.013,12.66154a1.03868,1.03868,0,0,0,.025.22337V12.93L19.9943,34.08236a11.27645,11.27645,0,0,0-2.31588.34557l-5.45211-13.167a2.02439,2.02439,0,0,0-2.61437-1.0708L1.279,23.63989A2.00936,2.00936,0,0,0,.19419,26.25727L7.58855,44.0951a8.00839,8.00839,0,0,0,.41269,16.00576h44.0737a8.01424,8.01424,0,1,0-.23238-16.0268ZM50.82185,18.14671l4.199-2.62038-1.48649,3.59a1.00191,1.00191,0,1,0,1.8511.76728l1.48649-3.59,1.11286,4.82106a19.81278,19.81278,0,0,0-2.90486,4.795,4.11991,4.11991,0,0,1-5.59937-2.31587A19.78721,19.78721,0,0,0,50.82185,18.14671ZM48.518,26.01086a6.10114,6.10114,0,0,0,2.49717,1.818,6.3555,6.3555,0,0,0,2.4511.51686,5.30815,5.30815,0,0,0,.607-.03706l-3.19634,7.7129a13.59463,13.59463,0,0,0-4.3012-5.31789Zm-13.72295-7.154,5.03241.30751c.03105.93556.02,1.90318-.011,2.88583a21.05561,21.05561,0,0,1-5.01839-.24241c-.12621-.018-.24942-.032-.37463-.04908.10017-.94358.22238-1.89918.36963-2.90185Zm-.4778-8.06649C36.97669,7.8565,38.355,5.59973,38.67554,3.47818a13.39637,13.39637,0,0,1,3.615,7.18,8.975,8.975,0,0,1-2.02739,6.5229q-2.968-.1803-5.87082-.3606a4.178,4.178,0,0,1-.07713-6.03008Zm-.07613,12.96468.29049.03806a28.5387,28.5387,0,0,0,3.89952.33155c.41469,0,.85142-.033,1.28915-.06711-.09115,1.28916-.2404,2.63541-.42972,4.02674-.24741-.013-.48981-.03707-.73823-.03707a13.41572,13.41572,0,0,0-4.43942.76428,48.34552,48.34552,0,0,1,.12621-5.05645Zm-7.748,11.71358L23.62737,23.26126a1.00167,1.00167,0,0,0-1.95026.45676L24.25242,34.7054a11.34417,11.34417,0,0,0-2.18365-.54391L17.67242,15.40011a4.74693,4.74693,0,0,0,1.96128.42672c.0631,0,.13021-.009.19432-.012l.70818,3.02405a1.00168,1.00168,0,1,0,1.95027-.45676L21.77728,15.356a4.74383,4.74383,0,0,0,1.74992-1.33223l4.46948,19.111A13.43783,13.43783,0,0,0,26.49316,35.46867ZM20.37293,13.73233a3.32555,3.32555,0,0,1-3.34459-1.33924l.12721-3.5279a5.89591,5.89591,0,0,0,1.05677.10016A4.4636,4.4636,0,0,0,19.23,8.85217a5.10268,5.10268,0,0,0,1.8571-.92355l1.68682,3.11321a3.32254,3.32254,0,0,1-2.401,2.6925ZM17.62934,2.03076a.31252.31252,0,0,1,.34458.15426l2.14759,3.97164a3.41756,3.41756,0,0,1-1.35226.75125,3.40551,3.40551,0,0,1-1.54358-.07312l.16327-4.51355A.31051.31051,0,0,1,17.62934,2.03076ZM10.38022,22.03721l.76528,1.8491L7.4393,25.42087A1.00168,1.00168,0,0,0,7.825,27.34609,1.01569,1.01569,0,0,0,8.20859,27.27l3.7062-1.53556.76628,1.85109-1.8541.76829a1.00167,1.00167,0,0,0,.38464,1.92722,1.01756,1.01756,0,0,0,.38264-.07613l1.8541-.76828.76628,1.85109-3.7092,1.53757a1.00168,1.00168,0,0,0,.38464,1.92723,1.01369,1.01369,0,0,0,.38264-.07613l3.7062-1.53457.81036,1.95627a11.62844,11.62844,0,0,0-6.48585,7.8942L2.04328,25.487Zm41.69472,36.0603H8.00124a6.01005,6.01005,0,1,1,0-12.0201,5.901,5.901,0,0,1,1.71387.24842,1.00169,1.00169,0,0,0,1.29116-.94058,9.5159,9.5159,0,0,1,15.22546-7.4214,1.00166,1.00166,0,0,0,1.53556-.45076,11.52167,11.52167,0,0,1,21.79846,7.43644,1.00168,1.00168,0,0,0,1.172,1.27413,6.25628,6.25628,0,0,1,1.33723-.14625,6.01005,6.01005,0,1,1,0,12.0201Z"/><path class="a" d="M38.73764,15.72666A1.00167,1.00167,0,0,0,39.539,15.331a7.51257,7.51257,0,0,0,1.33223-5.89786A1.00168,1.00168,0,1,0,38.936,9.949a5.5643,5.5643,0,0,1-.99366,4.173,1.00168,1.00168,0,0,0,.80134,1.60268Z"/><path class="a" d="M37.42044,46.07741a4.92438,4.92438,0,0,0-2.1486.50084,6.01005,6.01005,0,0,0-10.38236,5.89987,1.0017,1.0017,0,0,0,.92154.609.99085.99085,0,0,0,.39266-.08014,1.0017,1.0017,0,0,0,.52889-1.3142,4.08069,4.08069,0,0,1-.33056-1.60869,4.0067,4.0067,0,0,1,4.0067-4.0067,3.96667,3.96667,0,0,1,3.62106,2.30385,1.09094,1.09094,0,0,0,.07011.09416,1.01855,1.01855,0,0,0,.05309.10017c.018.022.04408.03205.06411.05309a.95534.95534,0,0,0,.15526.13021.97008.97008,0,0,0,.16027.10017.99163.99163,0,0,0,.1803.0561.92046.92046,0,0,0,.18831.029,1.23313,1.23313,0,0,0,.38264-.06411.75618.75618,0,0,0,.07914-.019.90113.90113,0,0,0,.09315-.06912,1.04031,1.04031,0,0,0,.10518-.05409,2.954,2.954,0,0,1,1.85911-.6571A3.005,3.005,0,0,1,40.145,49.82868,1.00184,1.00184,0,1,0,41.968,48.9973,5.00838,5.00838,0,0,0,37.42044,46.07741Z"/><path class="a" d="M17.70146,39.11677c-.15125.04908-3.69017,1.27313-3.69017,4.95729a1.00168,1.00168,0,1,0,2.00335,0,3.44377,3.44377,0,0,1,2.32589-3.05811,1.00381,1.00381,0,1,0-.63907-1.90318Z"/><path class="a" d="M31.798,38.034a.97735.97735,0,0,0,.2434.03005,1.00168,1.00168,0,0,0,.97063-.75827,4.27214,4.27214,0,0,1,4.04276-3.24843,1.00168,1.00168,0,0,0-.005-2.00335,6.23944,6.23944,0,0,0-5.98,4.765A1.00167,1.00167,0,0,0,31.798,38.034Z"/></svg>